<?xml version="1.0" encoding="utf-8"?>
<!-- Generator: Adobe Illustrator 14.0.0, SVG Export Plug-In  -->
<!DOCTYPE svg PUBLIC "-//W3C//DTD SVG 1.1//EN" "http://www.w3.org/Graphics/SVG/1.1/DTD/svg11.dtd" [
	<!ENTITY ns_flows "http://ns.adobe.com/Flows/1.0/">
]>
<svg version="1.1"
	 xmlns="http://www.w3.org/2000/svg" xmlns:xlink="http://www.w3.org/1999/xlink" xmlns:a="http://ns.adobe.com/AdobeSVGViewerExtensions/3.0/"
	 x="0px" y="0px" width="612px" height="792px" viewBox="-3 -72.623 612 792" enable-background="new -3 -72.623 612 792"
	 xml:space="preserve">
<defs>
</defs>
<polyline fill="#D7E4F5" points="255,235.377 504,3.377 547,81.377 269,245.377 265,265.377 563,204.377 562,324.377 264,272.377 
	488,473.377 379,544.377 245,293.377 261,549.377 141,511.377 240,283.377 62,381.377 34,307.377 209,279.377 56,177.377 
	91,124.377 209,243.377 241,239.377 172,75.377 311,22.377 245,260.377 "/>
<ellipse fill="#D7E4F5" cx="243.5" cy="267.877" rx="62.5" ry="58.5"/>
<polyline fill="#DCF2FD" points="224,260.377 99,121.377 167,82.377 233,233.377 316,22.377 500,1.377 271,219.377 285,236.377 
	548,84.377 561,198.377 273,257.377 271,284.377 560,327.377 489,469.377 288,295.377 371,543.377 271,548.377 261,281.377 
	137,504.377 65,385.377 218,296.377 204,277.377 33,303.377 57,184.377 198,270.377 "/>
<rect x="92" y="54.377" display="none" fill="#5EA479" width="203" height="242"/>
<rect x="177" y="165.377" display="none" fill="#5EA479" width="306" height="322"/>
<path fill="#EDEA62" stroke="#FED020" d="M293.334,213.044l0.333-21.667c0,0,13.611-6.666,17.667-6.667c2,0,2.666-1.667,2.666-1.667
	l-1.666-72.667L262,109.044l-30.25,27.583l1.232,33.714l5.768,22.036l2.75,2l5.167,0.667v19.333c0,0,2.667,1.989,4.667,1.989
	c11,0,10.995-0.163,38.666-0.667C290,215.699,292,215.056,293.334,213.044z"/>
<ellipse fill="#FBB040" stroke="#FFCE40" cx="278.25" cy="141.627" rx="4.25" ry="6.75"/>
<polygon fill="#FDC010" stroke="#FFC91F" points="257,216.044 255.334,196.044 247.334,191.712 267.334,183.379 309.333,184.378 
	293.666,191.045 288.666,203.045 267,216.045 "/>
<path fill="#FBB040" stroke="#FFCE40" d="M288,159.044h9l-5.5-10.5c0,0,1-10-0.666-10.333c-1.667-0.333-1.667-0.333-1.667-0.333"/>
<line fill="#FBB040" stroke="#FFCE40" x1="284" y1="171.877" x2="300.5" y2="171.877"/>
<line fill="#FBB040" stroke="#FFCE40" x1="284" y1="173.877" x2="300.5" y2="173.877"/>
<line fill="#FFCE40" stroke="#A97828" x1="284" y1="172.877" x2="300.5" y2="172.877"/>
<line fill="#FFCE40" stroke="#DFBC70" x1="284" y1="174.877" x2="300.5" y2="174.877"/>
<g>
	<defs>
		<ellipse id="SVGID_7_" cx="278.084" cy="141.627" rx="4.25" ry="6.75"/>
	</defs>
	<clipPath id="SVGID_8_">
		<use xlink:href="#SVGID_7_"  overflow="visible"/>
	</clipPath>
	<ellipse clip-path="url(#SVGID_8_)" fill="#74543A" stroke="#7D6342" cx="277.584" cy="142.294" rx="3.25" ry="5.25"/>
</g>
<ellipse fill="#FBB040" stroke="#FFCE40" cx="300.25" cy="142.627" rx="4.25" ry="6.75"/>
<g>
	<defs>
		<ellipse id="SVGID_6_" cx="300.084" cy="142.627" rx="4.25" ry="6.75"/>
	</defs>
	<clipPath id="SVGID_9_">
		<use xlink:href="#SVGID_6_"  overflow="visible"/>
	</clipPath>
	<ellipse clip-path="url(#SVGID_9_)" fill="#74543A" stroke="#7D6342" cx="299.584" cy="143.294" rx="3.25" ry="5.25"/>
</g>
<path fill="#2D281C" stroke="#CAA019" d="M313.5,102.627l-3.584-4.768c0,0-16.916,3.268-16.916,3.268l-13.326-8.336l-11.924,4.586
	l-14.25-6l-7.75,12.25h-10.5l-5.25,16l4.667,71.083c0,0,0.083,4.333,3.667,4.333s10.667-2,10.667-2l-0.666,20.333l4.667,1.989
	c-2,0-5.333-1.989-5.333-1.989l-1-19.333c0,0-5.75,0.333-9.5,0.333c-2.5,0,6.5-4.667,6.5-4.667L244,142.877
	c1.333,5.499,4,2.25,4,2.25s6-1.748,6-1.748l2.417-4.5c0,0-3.367-8.108-2.083-9.167c1.676-1.383,8.667-6.668,8.667-6.668l50,4.001"
	/>
<polyline fill="#EDEA62" stroke="#FED020" points="245.333,148.712 242,147.379 236.333,150.712 237.333,169.379 243.333,171.712 
	245.666,169.712 "/>
<polyline fill="#EDEA62" stroke="#FED020" points="239.666,157.045 239.333,163.045 241.666,164.379 241.666,159.045 "/>
<line display="none" stroke="#00AEEF" x1="2" y1="306.377" x2="499" y2="83.377"/>
<line display="none" stroke="#00AEEF" x1="2" y1="306.377" x2="437" y2="5.377"/>
<line display="none" stroke="#00AEEF" x1="2" y1="307.377" x2="354" y2="0.377"/>
<line display="none" stroke="#00AEEF" x1="2" y1="308.377" x2="489" y2="550.377"/>
<line display="none" stroke="#00AEEF" x1="1" y1="306.377" x2="395" y2="643.377"/>
<line display="none" stroke="#00AEEF" x1="0" y1="306.377" x2="468" y2="306.377"/>
<line display="none" fill="none" stroke="#70A5D8" x1="236.333" y1="194.544" x2="272.333" y2="177.544"/>
<line display="none" fill="none" stroke="#70A5D8" x1="323" y1="183.877" x2="242.5" y2="184.377"/>
<line display="none" fill="none" stroke="#44ABE0" x1="256" y1="68.377" x2="258.5" y2="195.877"/>
<path fill="#251906" d="M223.333,473.713c0,0-24.179,6.048-28.667,7.331c-5.25,1.501-6,6-6,6s-4.102,19.128-4,24.501
	c0.167,8.751,2,8.499,2,8.499s33.583,8.084,44.25,6.751c10.667-1.333,45.418-18.751,45.418-18.751l1.023-28.977l-42.024-6.021
	L223.333,473.713z"/>
<path fill="#251906" d="M332.332,469.71L370,470.377c0,0,8.666,0.667,10.666,4s4.666,23.333,4.666,23.333S375,515.044,373,516.377
	c-1.793,1.194-67.737-9.498-85.181-10.486c-2.024-0.115-3.236-3.43-3.236-3.43l-0.426-31.061l10.842-4.021L332.332,469.71z"/>
<path fill="#AA885C" stroke="#595057" d="M223.333,468.713c0,0-24.179,6.048-28.667,7.331c-5.25,1.501-6,6-6,6
	s-4.102,19.128-4,24.501c0.167,8.751,2,8.499,2,8.499s33.583,8.084,44.25,6.751s45.417-18.751,45.417-18.751l1.023-28.977
	l-42.024-6.021L223.333,468.713z"/>
<path fill="#AA885C" stroke="#595057" d="M331.332,464.71L369,465.377c0,0,8.666,0.667,10.666,4s4.666,23.333,4.666,23.333
	S374,510.044,372,511.377c-1.793,1.194-67.737-9.498-85.181-10.486c-2.024-0.115-3.236-3.43-3.236-3.43l-0.426-31.061l10.842-4.021
	L331.332,464.71z"/>
<polyline fill="#406181" stroke="#000000" points="308.351,215.698 320.601,219.448 335.417,283.877 353.75,283.877 354.75,309.21 
	313,311.627 307,248.627 "/>
<polyline fill="#406181" stroke="#000000" points="229.333,322.377 227.333,470.377 275.333,473.712 282,410.377 284,472.379 
	314.667,473.712 327.333,473.045 331,468.71 315,346.377 312.879,318.336 "/>
<polygon fill="#324F6C" stroke="#3F5F7F" points="234.667,335.712 232.667,469.045 264.667,471.045 266,335.045 "/>
<polygon fill="#324F6C" stroke="#3F5F7F" points="284.667,344.379 325.333,470.379 288,468.379 "/>
<path fill="#406181" stroke="#000000" d="M308.25,215.877c-6.651-1.794-13.25-1.833-13.25-1.833l-2,2.333l-16.667,1.333h-6.667
	h-15.333l-2.821-0.629l-4.845-2.705c0,0-8.333,1.5-17.084,3.417c0,0-4.25,0.919-3.917,13.251l3.667,99.332l-0.083,3.25l7.5-4.5
	c0,0,84.699-1.386,86.667-1.666c2.334-0.333,2.333-2,2.333-2l-6.25-70.084"/>
<path fill="#EDEA62" stroke="#FED020" d="M232.667,329.376l4.667,4c0,0,3.333,20.666,4.667,24.666c1.333,4-2.667,6.667-2.667,6.667
	L224,365.376h-22l-6-4l3.333-28.667l4.667-2"/>
<path fill="#FDC010" stroke="#FFC91F" d="M226.333,332.043L230,358.71c0,0,1,1.333-1.667,2.333h-27l-2-2l2.333-25L226.333,332.043z"
	/>
<path fill="#EDEA62" stroke="#FED020" d="M351.889,284.018l3.746-4.215c0,0,1.365-2.507,8.031-4.174
	c3.558-0.89,9.244,0.306,12.334,1.415c2.7,0.969,0.667,4,0.667,4s10.167,1.189,10.167,4c0,2.81,0,27.5,0,27.5
	s-1.224,3.323-4.972,3.791c-3.746,0.468-26.695-0.938-26.695-0.938l-1.873-5.151"/>
<polygon fill="#324F6C" stroke="#3F5F7F" points="246,325.044 237.333,245.043 224.667,241.043 223.333,328.377 "/>
<path fill="#406181" stroke="#000000" d="M228.825,217.929c-0.302,0.065-0.605,0.132-0.908,0.198
	c-8.75,1.917-17.917,4.25-19.583,5.917C205,227.377,205,227.377,205,227.377l-6,102l4,2l29.083-0.667l4.583-3"/>
<polygon fill="#324F6C" stroke="#3F5F7F" points="202,326.712 227.667,324.712 224,231.378 217,227.712 207,228.045 "/>
<path fill="#FDC010" stroke="#FFC91F" d="M354.334,284.876l3.5-3.667c0,0,4.5-5,14.833-3.333c0,0,1.167-0.166,1.167,1.167
	S370.5,281.21,369,281.21c0,0-3.666,1.667-3.666,3.667s4.333,3.5,5.666,3.333c0,0-5.167-1.333-5,3.5s5.167,4.167,5.167,4.167
	s-4.334-0.5-4.667,3.167s5,4.666,5.334,4.333c0,0-4.5,0-4.5,3s2.667,4.167,4,4.167l13.333,1c0,0-0.834,3-3.667,3
	s-24.333-1.5-24.333-1.5L354.334,284.876z"/>
<polygon fill="#324F6C" stroke="#3F5F7F" points="324.5,254.377 334.5,286.627 350.75,286.627 351.5,307.627 325.25,308.877 
	321.25,254.377 323,250.127 "/>
<polygon fill="#74543A" stroke="#7D6342" points="194.666,480.714 187.333,505.381 228,509.381 230.666,483.381 "/>
<polygon fill="#3E2E17" stroke="#7D6342" points="188.666,508.047 189.333,511.381 225.333,517.381 226,512.714 "/>
<path fill="#3E2E17" stroke="#7D6342" d="M286.666,499.047h4.667L370,509.714l-1.334-6.667l-78-8.666
	C290.666,494.381,286.513,493.203,286.666,499.047z"/>
<path fill="#74543A" stroke="#7D6342" d="M288,478.714v13.667l79.333,8l-2.667-14c0,0-0.667-6.666-8-6S288,478.714,288,478.714z"/>
<polygon fill="#324F6C" points="236,225.377 238,230.627 259.75,236.627 247.417,262.045 235.5,259.877 226.25,227.377 "/>
<path fill="#FFFFFF" d="M266,233.377l3,93l36.25,0.25l-15.5-83.25l5.25-29.333c0,0-1.438-0.667-2.188,1.333s-8.5,1.188-12.75,1.438
	s-27.438,0.812-29.438-0.438s-3.958-2-3.958-2L266,233.377z"/>
<polygon fill="#20344A" stroke="#2B4564" points="295,214.044 289.667,243.71 306,326.71 301.333,326.044 293.667,282.044 
	288,244.877 "/>
<polygon fill="#324F6C" points="300.25,239.627 314.75,228.627 317.5,248.627 313.75,254.127 318,318.627 308.75,251.627 
	309.25,242.377 "/>
<polyline fill="none" stroke="#2B4564" points="258.75,234.877 235.5,228.877 238.25,216.627 "/>
<polyline fill="none" stroke="#2B4564" points="296.5,235.377 311.5,220.127 304,214.627 "/>
<path fill="#FFFFFF" stroke="#06192E" d="M316.58,245.657c0,0.398-0.322,0.72-0.72,0.72h-13.89c-0.398,0-0.721-0.322-0.721-0.72
	v-3.893c0-0.398,0.322-0.72,0.721-0.72l13.89,1c0.397,0,0.72,0.322,0.72,0.72V245.657z"/>
<polyline fill="#FFFFFF" stroke="#06192E" points="303.666,242.377 304.75,244.627 305.708,242.127 307.25,243.127 304.75,242.502 
	305.625,241.252 "/>
<polyline fill="#FFFFFF" stroke="#06192E" points="306.375,244.377 306.875,245.252 307.75,245.252 308.125,244.502 "/>
<polyline fill="#FFFFFF" stroke="#06192E" points="309.875,242.627 309.75,244.252 310.125,245.127 309.625,245.377 "/>
<polyline fill="#FFFFFF" stroke="#06192E" points="312,243.127 311.375,243.752 312.25,244.877 "/>
<line fill="#FFFFFF" stroke="#06192E" x1="313.375" y1="243.377" x2="313.375" y2="244.877"/>
<line fill="#FFFFFF" stroke="#020610" x1="314.625" y1="243.002" x2="314.75" y2="245.252"/>
<path opacity="0.55" fill="#333334" d="M315.219,242.377c0.63,0,1.142,0.322,1.142,0.72v2.893c0,0.398-0.512,0.72-1.142,0.72
	h-10.922c-0.631,0-1.143-0.322-1.143-0.72"/>
<polyline fill="#7E745A" stroke="#CAA019" points="249.25,141.377 259.667,165.379 308.001,166.713 317.334,166.046 
	322.334,160.045 318.668,163.716 315,165.377 316.334,167.379 265.001,163.379 256.25,138.127 "/>
<polyline fill="#2D281C" stroke="#CAA019" points="241,142.877 251.334,190.381 256.667,206.716 264.334,202.716 269.334,209.716 
	279.667,204.383 291.001,212.049 296.667,205.049 305.334,210.716 312.668,205.716 321.334,209.049 318.667,198.377 
	322.334,160.045 310.001,165.046 288.334,165.713 266.001,165.046 258.75,163.877 250.5,140.377 "/>
<polyline fill="#978B6D" stroke="#CAA019" points="314.001,164.049 322,161.043 313.334,128.716 "/>
<path fill="#69604A" stroke="#CAA019" d="M312.665,186.09c0,1.688-1.368,3.057-3.056,3.057h-23.885
	c-1.688,0-3.056-1.368-3.056-3.057v-9.453c0-1.688,1.368-3.057,3.056-3.057h23.885c1.688,0,3.056,1.368,3.056,3.057V186.09z"/>
<g>
	<defs>
		<path id="SVGID_3_" d="M306.301,184.68c0,1.311-1.063,2.375-2.375,2.375h-18.551c-1.312,0-2.374-1.063-2.374-2.375v-7.342
			c0-1.311,1.062-2.375,2.374-2.375h18.551c1.311,0,2.375,1.063,2.375,2.375V184.68z"/>
	</defs>
	<clipPath id="SVGID_10_">
		<use xlink:href="#SVGID_3_"  overflow="visible"/>
	</clipPath>
	<g clip-path="url(#SVGID_10_)">
		<path fill="#EDEA62" stroke="#FED020" d="M292.668,221.377l0.333-21.667c0,0,13.612-6.666,17.667-6.667
			c2,0,2.666-1.667,2.666-1.667l-1.666-72.667l-50.333-1.333l-30.25,27.583l1.232,33.714l5.768,22.036l2.75,2l5.167,0.667v19.333
			c0,0,2.667,1.989,4.667,1.989c11,0,10.995-0.163,38.666-0.667C289.334,224.032,291.334,223.389,292.668,221.377z"/>
		<path fill="#FDC010" stroke="#FFC91F" d="M310.336,193.044"/>
		<path fill="#FDC010" stroke="#FFC91F" d="M263.668,170.043"/>
		<polygon fill="#FDC010" stroke="#FFC91F" points="256.334,224.377 254.668,204.377 246.668,200.045 266.668,191.712 
			308.668,192.711 293,199.378 288,211.378 266.334,224.378 		"/>
		<line fill="#FBB040" stroke="#FFCE40" x1="283.334" y1="180.21" x2="299.834" y2="180.21"/>
		<line fill="#FBB040" stroke="#FFCE40" x1="283.334" y1="182.21" x2="299.834" y2="182.21"/>
		<line fill="#FFCE40" stroke="#A97828" x1="283.334" y1="181.21" x2="299.834" y2="181.21"/>
		<line fill="#FFCE40" stroke="#DFBC70" x1="283.334" y1="183.21" x2="299.834" y2="183.21"/>
		<g>
			<defs>
				<ellipse id="SVGID_5_" cx="277.418" cy="149.96" rx="4.25" ry="6.75"/>
			</defs>
			<clipPath id="SVGID_11_">
				<use xlink:href="#SVGID_5_"  overflow="visible"/>
			</clipPath>
		</g>
		<path fill="#EDEA62" stroke="#FED020" d="M241,167.378"/>
		<path fill="#EDEA62" stroke="#FED020" d="M239,165.378"/>
	</g>
</g>
<polygon fill="#7E745A" points="242,140.71 237.333,146.377 249.667,147.377 254,157.71 252.667,138.377 "/>
<polyline fill="#3F3828" points="254,144.043 264.333,164.043 270.333,164.377 313.667,167.043 277,173.377 259.667,176.71 
	248.667,155.377 "/>
<polygon fill="#3F3828" points="231.75,120.71 235.333,148.377 243,143.377 257.667,201.043 262,163.71 251,128.043 263.667,119.71 
	266.333,100.377 256,108.043 255.667,97.043 247.333,107.377 237.333,107.377 "/>
<polyline fill="#69604A" points="296.333,103.043 308.667,99.377 309.667,105.043 "/>
<polyline fill="#69604A" points="271,101.377 277.667,95.71 281.667,103.043 "/>
<polyline fill="#69604A" points="285,112.71 297.667,110.71 297.667,116.377 "/>
<polyline fill="#69604A" points="271.667,199.043 276.667,188.377 279.333,200.71 "/>
<polygon fill="#69604A" points="304.667,202.043 302.667,193.043 310.667,199.043 "/>
<polygon fill="#69604A" points="269.667,176.377 274.333,169.71 278.333,178.377 "/>
<polygon fill="#69604A" points="316.667,181.377 317.667,167.377 318.333,178.377 "/>
<polygon fill="#69604A" points="315.667,200.71 318,204.71 313,202.71 "/>
<polygon fill="#69604A" points="316,160.043 314.667,141.043 320,159.377 "/>
<ellipse fill="#66391C" cx="301" cy="182.377" rx="3.333" ry="5"/>
<ellipse fill="#69604A" cx="314.5" cy="181.71" rx="4.167" ry="6.333"/>
<polygon fill="#66391C" points="301,187.377 314.5,188.043 314.5,175.377 301,177.377 "/>
<ellipse fill="#A29894" cx="315.5" cy="181.96" rx="4.167" ry="6.333"/>
<polygon fill="#C8A937" points="314.5,181.71 314.25,178.877 316.75,180.377 "/>
<polygon fill="#C8A937" points="315,185.627 317,183.627 317.25,185.627 "/>
<polygon fill="#E6C727" points="316.75,180.377 316.5,177.127 318.25,178.627 "/>
<polygon fill="#4F4500" points="314.75,183.627 314.5,181.71 316.5,182.377 "/>
<polygon fill="#4F4500" points="314.25,178.877 314.25,176.627 315.75,178.127 "/>
<polygon fill="#4F4500" points="313,181.127 312.25,182.377 313.75,183.127 "/>
<ellipse fill="#CBC637" cx="303" cy="182.72" rx="3.667" ry="5.574"/>
<polygon fill="#CBC637" points="303.25,177.146 307,176.377 309,188.127 302.25,187.877 "/>
<ellipse fill="#66391C" cx="307.79" cy="182.4" rx="3.877" ry="5.894"/>
<polygon opacity="0.7" points="297.667,182.377 311,180.877 312.5,186.377 299,186.127 "/>
<polygon fill="#EDEA62" stroke="#898872" points="357.078,242.457 360.768,378.959 368.9,389.783 380.195,387.938 384.418,377.959 
	372.9,235.077 399.505,196.341 388.436,153.915 358.924,144.691 342.32,152.071 338.63,159.447 349.7,164.982 371.837,181.583 
	371.837,201.875 355.233,220.321 329.41,216.631 320.188,198.186 310.962,211.097 312.808,218.477 329.41,233.234 "/>
<polygon fill="#AFB9AC" stroke="#E2E3E4" points="359.845,242.457 363.534,378.959 371.669,389.783 380.961,387.938 
	386.186,373.959 375.669,235.077 402.271,196.341 391.202,153.915 361.693,144.691 345.09,152.071 341.398,159.447 352.466,164.982 
	374.603,181.583 374.603,201.875 358,220.321 332.177,216.631 322.955,198.186 313.729,211.097 315.574,218.477 332.177,233.234 "/>
<line fill="none" stroke="#E2E3E4" x1="364.603" y1="333.599" x2="384.66" y2="330.137"/>
<line fill="none" stroke="#8C8E90" x1="364.603" y1="336.364" x2="384.66" y2="332.904"/>
<line fill="none" stroke="#E2E3E4" x1="364.603" y1="344.663" x2="384.66" y2="341.205"/>
<line fill="none" stroke="#8C8E90" x1="364.603" y1="347.429" x2="384.66" y2="343.973"/>
<line fill="none" stroke="#E2E3E4" x1="364.603" y1="358.499" x2="384.66" y2="355.039"/>
<line fill="none" stroke="#8C8E90" x1="364.603" y1="361.266" x2="384.66" y2="357.806"/>
<line fill="none" stroke="#8C8E90" x1="373.217" y1="158.754" x2="367.684" y2="165.671"/>
<line fill="none" stroke="#8C8E90" x1="380.826" y1="158.754" x2="378.751" y2="161.522"/>
<line fill="none" stroke="#8C8E90" x1="373.91" y1="164.287" x2="377.368" y2="164.979"/>
<line fill="none" stroke="#E2E3E4" x1="375.984" y1="155.987" x2="370.451" y2="162.904"/>
<line fill="none" stroke="#E2E3E4" x1="383.595" y1="155.987" x2="381.52" y2="158.754"/>
<line fill="none" stroke="#E2E3E4" x1="376.677" y1="161.522" x2="380.134" y2="162.213"/>
<path fill="#EDEA62" stroke="#FED020" d="M384.167,312.876l-11.5-0.333c-2-0.333-4.667-1.167-4.667-4.167s4.5-4.667,4.5-4.667
	c-0.334,0.333-6.5-0.833-6.167-4.5s4.834-4.334,4.834-4.334s-5,0.667-5.167-4.167s5-3.5,5-3.5c-1.333,0.167-5.666-1.333-5.666-3.333
	S369,280.21,369,280.21l7.667,0.833c0,0,10.167,1.189,10.167,4c0,2.81,0,27.5,0,27.5"/>
<path fill="#EDEA62" stroke="#FED020" d="M352.667,284.544l2.968-4.574c0,0,1.365-2.507,8.031-4.174
	c3.558-0.89,9.244,0.306,12.334,1.415c2.7,0.969,0.667,4,0.667,4s-0.834,3.5-4.834,3.333s-11.166,1.167-11.166,1.167"/>
<polyline fill="#FDC010" stroke="#FFC91F" points="353.499,284.376 360.666,278.043 368.5,277.21 373.333,278.71 373,281.71 
	358.333,285.543 "/>
<path opacity="0.76" d="M234,300.877l3,22.5c0,0,1,8,5,0.5s4.5-3.5,7-3s6-23-1.5-20S238,289.877,234,300.877z"/>
<path opacity="0.76" d="M231,275.877c0,0,0.5,19-1,19.5s-4.5,10.5-8,8s-4.5-12-0.5-18s5-8,2-12s-4.5-21.5-2.5-22s4.5,0,5,3.5"/>
<path d="M207,228.045c0,0,14,3.332,13-0.168s0.5-5.5-4.5-4.5"/>
<path opacity="0.67" d="M257.5,382.877c0,0-14.5,1.5-13,20s4.5,19.5,4.5,24.5s2,16-2.5,22.5s-6,12.5,0,14s14.5-31,12-37.5
	s-1.5-20.5-2.5-26S262,383.377,257.5,382.877z"/>
<path opacity="0.82" d="M312.5,396.377c-4.082,0.583-6,5-5.5,7s5.5,6,7,3.5S319.5,395.377,312.5,396.377z"/>
<path opacity="0.74" d="M308.5,352.377c3.354,1.118,6,11.5-3,7.5S305.5,351.377,308.5,352.377z"/>
<path opacity="0.67" d="M253.661,382.877c0,0-7.462,1.5-6.69,20s2.316,19.5,2.316,24.5s1.029,16-1.287,22.5
	c-2.316,6.5-5.087,9.5-2,11s9.461-28,8.175-34.5c-1.286-6.5-0.771-20.5-1.286-26S255.976,383.377,253.661,382.877z"/>
<path opacity="0.48" d="M374,367.877c0,0,0.5,10.5,2.5,7.5s2.5-6.5,2.5-11c0-2.2,0.836-4.161,1.691-5.592
	c0.895-1.494,1.809-2.408,1.809-2.408l-3-11l3-3.5l-1.5-5.5c0,0,1.5-5.5-1.5-5.5s-2,2.5-2,4s-2,6.5-2,6.5v5l1,9.5l-0.5,4"/>
<path opacity="0.24" d="M271,139.377c0,0-9-4-10.5-2s-1,7.5,0,9s7.5,5,9,1S271,139.377,271,139.377z"/>
<path opacity="0.67" d="M386,177.877c0,0-7.5,4-4,12s12,7,12,4S396.5,175.377,386,177.877z"/>
<path opacity="0.52" d="M218.667,474.378c0,0-22.668,2.672-24.001,6.336s-1.333,3.664-1.333,3.664s-5.333,4,2.667,8.667
	s15.333,6.666,22,5.333s8.667-14.667,6-18s0-5.333,4-5.333S226,473.711,218.667,474.378z"/>
<path opacity="0.65" d="M340.667,472.378c0,0-12,3.334-12,6.667s-1.333,6,0,10s4.667,8.667,4.667,8.667s11.333-5.334,9.333-10.667
	s-4.667-9.333-2-10S347.334,471.711,340.667,472.378z"/>
<path opacity="0.87" d="M365.334,471.045l7.333-2l4,6.667c0,0,0,5.333,2,5.333"/>
<path fill="#BE1E2D" stroke="#000000" d="M306.667,90.044c0,0-51.459-1.23-55.167-0.667c-6.5,0.988-21.75,22-21.75,22v36.25
	L262,123.044l54.334,2.321l-2.334-28C314,97.365,314,90.057,306.667,90.044z"/>
<path fill="#E9E9EA" stroke="#A67F2A" d="M306.498,113.277c0,1.988-1.335,3.6-2.981,3.6h-32.536c-1.647,0-2.981-1.612-2.981-3.6
	v-11.3c0-1.988,1.334-3.6,2.981-3.6h32.536c1.646,0,2.981,1.612,2.981,3.6V113.277z"/>
<polyline fill="#E9E9EA" stroke="#000000" points="275.5,105.877 277.148,102.911 278,101.377 280.5,105.877 "/>
<polyline fill="none" stroke="#381116" points="281,103.377 287.5,108.377 291.5,104.877 297.5,107.877 301,101.377 "/>
<polyline fill="#E9E9EA" stroke="#000000" points="286.5,100.877 292.333,104.711 294.5,100.877 "/>
<line fill="none" stroke="#000000" x1="283.5" y1="101.377" x2="282.557" y2="107.952"/>
<line fill="none" stroke="#000000" x1="301.5" y1="102.377" x2="301.5" y2="110.377"/>
<line fill="none" stroke="#000000" x1="280.5" y1="105.877" x2="280.5" y2="113.377"/>
<line fill="none" stroke="#000000" x1="275.5" y1="105.877" x2="276.5" y2="116.377"/>
<line fill="none" stroke="#000000" x1="285.5" y1="102.877" x2="287.5" y2="111.877"/>
<polygon fill="#97131F" stroke="#000000" points="282.557,107.952 262,123.044 318.334,125.377 335.411,112.996 337,109.044 
	331.969,105.507 300.971,104.231 292.333,104.711 "/>
<line fill="none" stroke="#000000" x1="272" y1="102.377" x2="272" y2="107.377"/>
<line fill="none" stroke="#000000" x1="272" y1="107.377" x2="275" y2="112.877"/>
<line fill="none" stroke="#000000" x1="274.5" y1="101.377" x2="275.5" y2="105.877"/>
<path fill="#97131F" d="M233,112.877c0,0-0.75,22.25-0.75,23.5s10.25-5.5,10.25-5.5l13.75-11.75l-5.5-26.75
	C250.75,92.377,232.5,108.127,233,112.877z"/>
<polygon fill="#BE1E2D" points="314.5,106.377 333.75,111.127 285.25,112.877 "/>
</svg>
